<svg xmlns="http://www.w3.org/2000/svg" width="85" height="85" viewBox="0 0 85 85">
  <g fill="none" fill-rule="evenodd">
    <path fill="#00BC7E" fill-rule="nonzero" d="M42.5,0 C19.04,0 0,19.04 0,42.5 C0,65.96 19.04,85 42.5,85 C65.96,85 85,65.96 85,42.5 C85,19.04 65.96,0 42.5,0 Z"/>
    <path fill="#304960" d="M63.5735837,43.3 C63.9735837,47.8 64.5735837,53.1 62.1735837,59.1 C60.2735837,63.8 54.8735837,70.3 47.2735837,72 C51.6735837,70.1 54.5735837,65.6 54.1735837,60.5 C53.9735837,57.7 52.2735837,55 50.4735837,53.1 C49.3735837,60.3 45.4735837,61.1 45.4735837,61.1 C45.4735837,61.1 47.6735837,56.4 48.0735837,51.2 C48.1735837,49.2 48.0735837,47 47.4735837,44.7 C45.3735837,37.3 41.8735837,35.3 41.8735837,35.3 C41.8735837,35.3 43.0735837,39.6 38.7735837,46.6 C35.7735837,51.4 30.7735837,55 30.9735837,62.2 C31.0735837,66.1 33.2735837,69.4 36.4735837,71.2 C29.7735837,68.9 24.1735837,63.2 21.1735837,54.6 C16.8735837,42.3 25.7735837,32.5 25.7735837,32.5 C25.7735837,32.5 25.6735837,35.1 26.6735837,37.9 C27.7735837,40.6 29.8735837,42.7 29.8735837,42.7 C29.8735837,42.7 27.7735837,36.9 32.8735837,27.2 C38.5735837,16.3 51.0735837,14 51.0735837,14 C51.0735837,14 47.9735837,19.2 49.3735837,24.6 C50.4735837,28.6 52.2735837,30.5 54.2735837,35.9 C56.2735837,41.4 55.9735837,44.5 55.9735837,44.5 C55.9735837,44.5 56.5735837,41 57.9735837,38.7 C61.0735837,33.6 65.2735837,32.4 65.2735837,32.4 C65.2735837,32.4 63.0735837,37.1 63.5735837,43.3 Z"/>
  </g>
</svg>
